<?xml version="1.0" standalone="no"?>
<!DOCTYPE svg PUBLIC "-//W3C//DTD SVG 20010904//EN"
 "http://www.w3.org/TR/2001/REC-SVG-20010904/DTD/svg10.dtd">
<svg version="1.0" xmlns="http://www.w3.org/2000/svg"
 width="221.000000pt" height="176.000000pt" viewBox="0 0 221.000000 176.000000"
 preserveAspectRatio="xMidYMid meet">
<metadata>
Created by potrace 1.10, written by Peter Selinger 2001-2011
</metadata>
<g transform="translate(0.000000,176.000000) scale(0.100000,-0.100000)"
fill="#000000" stroke="none">
<path d="M433 1643 c-42 -40 -94 -101 -166 -193 -7 -8 -30 -42 -52 -75 -129
-195 -175 -315 -175 -461 0 -75 3 -88 40 -160 28 -57 63 -104 125 -169 118
-124 203 -250 210 -311 3 -33 63 -98 108 -118 20 -10 37 -22 37 -27 0 -5 5 -9
10 -9 6 0 30 -9 52 -20 23 -11 45 -20 49 -20 3 0 9 19 13 43 4 23 9 52 13 64
5 21 2 23 -43 22 -51 -1 -102 16 -143 49 -24 20 -22 42 5 42 8 0 14 5 14 10 0
6 5 10 11 10 5 0 24 13 42 30 18 16 35 30 39 30 14 0 19 -21 8 -35 -7 -8 -9
-23 -6 -32 5 -11 10 -14 14 -6 4 6 15 12 26 14 14 3 23 22 36 74 10 39 16 73
14 76 -12 21 -188 -67 -242 -120 l-40 -40 -30 62 c-33 69 -47 87 -179 229
-140 150 -178 245 -155 391 18 114 108 295 225 453 62 82 57 77 131 153 33 34
68 61 78 61 73 0 232 -47 603 -177 425 -149 535 -196 535 -227 0 -77 -154
-191 -372 -277 -94 -37 -166 -106 -219 -209 -13 -25 -26 -47 -29 -50 -10 -9
-50 -68 -50 -75 0 -3 23 -4 52 -1 63 7 245 -10 309 -29 66 -19 109 -43 109
-61 0 -9 5 -14 11 -12 12 4 59 175 59 214 0 19 9 21 128 34 192 19 272 58 272
129 0 71 17 68 39 -6 12 -39 21 -80 21 -92 0 -13 6 -21 16 -21 14 0 15 7 10
43 -10 63 -29 113 -86 225 -40 78 -59 106 -83 119 -17 8 -39 25 -48 37 -9 11
-34 30 -55 41 -22 11 -54 30 -72 42 -44 29 -223 103 -357 148 -60 20 -123 43
-140 50 -100 43 -479 158 -576 174 -93 16 -91 16 -146 -36z m1289 -420 c15
-13 15 -19 2 -57 -20 -59 -61 -105 -143 -161 -78 -52 -87 -82 -13 -39 88 50
141 97 162 141 11 23 20 50 20 59 0 29 34 10 41 -23 3 -18 12 -39 18 -47 18
-21 30 -114 17 -125 -17 -14 -89 -29 -203 -42 -57 -6 -103 -16 -103 -21 0 -11
164 -5 214 8 22 5 27 4 21 -6 -10 -16 76 30 92 50 19 23 12 157 -7 145 -9 -6
-23 25 -15 33 3 3 5 0 5 -6 0 -7 7 -12 15 -12 8 0 15 -8 15 -19 0 -10 8 -29
19 -42 21 -28 37 -99 21 -99 -5 0 -10 -11 -10 -25 0 -16 -6 -25 -15 -25 -8 0
-15 -6 -15 -14 0 -36 -82 -61 -265 -81 -88 -10 -114 -26 -115 -74 0 -34 -22
-101 -31 -96 -4 3 -5 -4 -2 -15 4 -15 0 -20 -14 -20 -10 0 -23 4 -28 9 -25 23
-164 51 -280 56 -42 1 -78 5 -81 8 -7 6 38 97 48 97 4 0 8 5 8 11 0 21 91 118
106 112 8 -3 14 1 14 8 0 13 20 25 82 48 109 41 230 110 287 165 48 46 54 55
70 93 14 33 29 35 63 6z m-1053 -842 c-1 -15 -3 -19 -6 -9 -2 9 -16 19 -31 23
-18 4 -22 9 -13 14 25 16 51 1 50 -28z m-99 -11 c0 -5 -6 -10 -14 -10 -7 0
-19 -7 -26 -15 -7 -8 -17 -15 -22 -15 -23 0 27 41 60 49 1 1 2 -3 2 -9z m-92
-81 c-8 -25 -8 -33 3 -40 8 -5 10 -9 4 -9 -5 0 -3 -5 5 -10 10 -6 11 -10 3
-10 -7 0 -20 11 -29 25 -15 23 -15 27 0 50 22 34 27 31 14 -6z m70 -95 c18 -8
32 -20 32 -25 0 -5 5 -9 11 -9 5 0 7 5 4 10 -4 6 7 10 24 10 17 0 31 -4 31
-10 0 -5 -7 -10 -16 -10 -14 0 -14 -1 0 -16 27 -27 18 -25 -54 12 -38 20 -70
40 -70 45 0 12 2 12 38 -7z"/>
<path d="M1221 1280 c-15 -13 -38 -20 -66 -20 -61 0 -74 -21 -63 -103 2 -14
-18 -26 -91 -57 -52 -21 -99 -44 -104 -49 -16 -16 8 -38 25 -24 7 6 27 15 43
20 17 6 60 22 96 36 l66 25 1 -31 c0 -18 6 -33 11 -35 6 -2 11 -9 11 -15 1
-39 17 -37 118 13 55 27 106 50 112 50 14 0 12 40 -4 71 l-13 26 78 13 c55 9
79 18 79 27 0 14 -57 13 -141 -3 -20 -4 -30 1 -44 23 -37 56 -73 67 -114 33z
m132 -122 l5 -36 -64 -32 c-35 -18 -67 -36 -70 -41 -13 -22 -45 -7 -66 31 -13
22 -28 40 -33 40 -13 0 -7 69 7 87 6 7 4 13 -4 16 -7 3 5 6 27 7 22 0 58 9 79
19 l39 19 37 -37 c24 -23 39 -49 43 -73z"/>
<path d="M688 620 c-41 -42 -49 -81 -24 -115 13 -18 14 -18 25 3 9 17 8 23 -6
31 -17 9 -17 11 3 38 17 23 30 29 68 31 53 4 56 -3 26 -66 -34 -70 -51 -184
-50 -342 0 -80 2 -154 4 -165 4 -22 12 -22 69 -3 34 11 38 16 33 38 -21 91
-26 155 -21 261 9 172 32 216 123 237 30 7 75 11 100 11 l47 -2 -37 -10 c-21
-6 -38 -15 -38 -20 0 -5 10 -6 23 -3 12 4 37 9 55 13 61 11 35 30 -70 51 -57
11 -121 27 -143 36 -22 8 -65 15 -95 15 -51 1 -58 -2 -92 -39z m185 -7 c29 -6
48 -23 25 -23 -8 0 -29 -15 -47 -34 -25 -25 -36 -49 -47 -102 -8 -38 -12 -74
-10 -80 2 -6 1 -16 -4 -23 -4 -8 -9 5 -13 31 -4 31 -2 48 10 60 8 10 13 24 10
32 -3 8 1 29 10 46 10 22 13 44 9 72 -6 36 -5 40 11 33 10 -3 30 -9 46 -12z
m-93 -368 c4 3 8 -1 7 -8 -2 -70 5 -147 13 -142 6 3 10 1 10 -4 0 -6 -5 -11
-11 -11 -5 0 -7 -5 -3 -11 4 -7 0 -10 -11 -7 -11 2 -19 14 -21 33 -2 17 -4 37
-5 45 -4 29 3 125 8 112 2 -6 8 -10 13 -7z"/>
<path d="M1950 592 c-24 -8 -72 -29 -105 -46 -64 -33 -67 -42 -44 -102 8 -23
9 -23 50 -9 23 8 50 15 59 15 15 0 17 6 13 38 -5 34 -1 42 26 64 16 14 36 28
42 30 7 2 10 9 8 15 -3 6 -19 5 -49 -5z m-80 -91 c14 -27 13 -31 -10 -31 -15
0 -20 7 -20 25 0 30 15 33 30 6z"/>
<path d="M1190 559 c0 -9 -7 -20 -16 -23 -8 -3 -13 -10 -10 -15 3 -4 27 -1 53
8 46 15 46 16 18 19 -16 2 -33 9 -37 15 -5 8 -8 6 -8 -4z"/>
<path d="M1110 551 c-16 -4 -21 -9 -13 -14 7 -4 27 -1 45 7 35 15 15 20 -32 7z"/>
<path d="M923 513 c-40 -4 -42 -6 -57 -51 -8 -26 -16 -66 -19 -89 l-5 -43 39
0 c35 0 39 3 39 24 0 35 22 126 31 126 3 0 9 9 12 20 3 11 4 19 4 18 -1 -1
-21 -3 -44 -5z m-16 -88 c-10 -45 -23 -57 -33 -31 -7 18 23 89 34 82 6 -3 5
-25 -1 -51z"/>
<path d="M1000 508 c0 -7 -7 -26 -16 -43 -34 -65 -32 -338 2 -398 8 -15 15
-16 37 -8 l26 10 -16 43 c-21 57 -30 253 -13 302 9 28 17 36 36 36 28 0 29 -2
9 -66 -19 -64 -19 -148 1 -235 16 -69 17 -70 42 -64 41 10 45 19 28 69 -10 28
-16 80 -16 129 0 96 7 128 25 121 15 -6 29 11 21 25 -7 10 -56 -9 -56 -21 0
-5 -4 -8 -9 -8 -5 0 -7 9 -4 19 10 39 -47 76 -69 46 -5 -6 -8 -3 -8 6 0 20 70
25 83 6 7 -9 10 -9 14 1 4 10 9 8 20 -7 8 -12 21 -21 29 -21 13 0 18 -12 15
-32 0 -5 8 -8 20 -8 11 0 17 -5 14 -10 -4 -6 -10 -8 -15 -5 -5 3 -13 -17 -19
-45 -11 -52 2 -196 19 -214 5 -4 18 -1 31 8 22 15 23 21 21 133 -2 89 1 125
12 146 15 27 14 27 -21 42 -20 9 -46 12 -57 9 -26 -9 -32 -6 -28 11 2 8 -12
15 -38 19 -22 3 -58 9 -80 12 -30 4 -40 2 -40 -8z m86 -251 l0 -92 -9 67 c-8
55 -5 118 6 118 1 0 2 -42 3 -93z"/>
<path d="M1724 480 c-32 -13 -37 -26 -19 -59 8 -17 15 -39 15 -51 0 -11 9 -29
19 -39 11 -11 21 -27 24 -38 3 -10 5 -2 6 17 l2 35 15 -28 c19 -35 12 -45 -31
-44 -25 1 -31 3 -20 9 25 15 17 28 -15 22 -19 -4 -34 -1 -44 9 -16 15 -39 97
-28 97 3 0 1 5 -4 10 -7 7 -28 7 -65 -1 -30 -6 -64 -13 -76 -15 -27 -5 -30
-33 -12 -114 11 -50 11 -50 50 -50 44 0 45 2 24 33 -8 12 -16 38 -17 57 -3 29
0 35 19 38 18 3 23 -3 29 -35 4 -21 13 -50 20 -64 12 -25 17 -26 99 -28 79 -1
88 1 105 21 15 19 16 26 5 38 -14 17 -52 122 -57 159 -3 28 -14 33 -44 21z
m-83 -160 c5 0 9 -6 9 -14 0 -8 8 -16 18 -18 16 -3 16 -4 -1 -11 -14 -5 -22 2
-37 36 -11 23 -19 49 -19 57 1 8 6 0 11 -17 6 -18 15 -33 19 -33z"/>
<path d="M1295 399 c-11 -49 -9 -199 3 -211 7 -7 30 -1 75 21 36 17 70 31 77
31 6 0 9 8 6 18 -3 9 -8 29 -12 44 -5 23 -10 27 -35 24 -16 -2 -38 -11 -49
-21 -17 -16 -20 -16 -26 -2 -3 8 -4 28 -2 44 3 30 12 32 83 22 24 -3 30 0 30
15 0 15 -12 23 -50 33 -79 20 -92 18 -100 -18z m105 -111 c0 -19 -31 -47 -46
-41 -21 8 -17 27 9 39 30 16 37 16 37 2z"/>
<path d="M1885 403 c-33 -9 -62 -17 -64 -19 -2 -1 12 -24 30 -50 l34 -46 70 7
c39 3 95 10 125 14 l55 7 -65 32 c-36 19 -74 42 -86 53 -23 22 -20 22 -99 2z
m63 -35 c16 -16 15 -38 0 -38 -21 1 -51 28 -43 39 8 14 28 14 43 -1z"/>
<path d="M844 218 c3 -13 11 -55 18 -95 l12 -71 35 -5 c41 -5 59 6 44 25 -6 7
-17 48 -23 91 l-13 77 -40 0 c-36 0 -39 -2 -33 -22z m62 -69 c8 -24 14 -45 14
-46 0 -2 -7 -3 -15 -3 -13 0 -35 55 -35 88 0 29 24 4 36 -39z"/>
<path d="M1285 151 c-8 -14 31 -33 58 -29 20 3 19 5 -10 21 -37 20 -40 20 -48
8z"/>
<path d="M1240 122 c0 -10 41 -35 47 -28 9 8 -17 36 -33 36 -8 0 -14 -3 -14
-8z"/>
<path d="M1175 70 c10 -11 25 -20 34 -20 12 1 10 5 -8 20 -30 26 -49 26 -26 0z"/>
<path d="M1120 64 c0 -11 34 -33 49 -34 11 0 10 5 -4 20 -17 19 -45 27 -45 14z"/>
<path d="M1060 41 c0 -10 80 -44 87 -38 2 3 -9 14 -25 26 -31 22 -62 28 -62
12z"/>
</g>
</svg>
